<svg width="48" height="48" viewBox="0 0 48 48" fill="none" xmlns="http://www.w3.org/2000/svg">
<circle cx="24" cy="24" r="20" fill="#5865F2"/>
<path d="M32.8566 14.7129C31.1358 13.9201 29.2904 13.3359 27.3609 13.0014C27.3257 12.9949 27.2906 13.0111 27.2725 13.0434C27.0352 13.4672 26.7723 14.0201 26.5882 14.4547C24.513 14.1427 22.4483 14.1427 20.4156 14.4547C20.2315 14.0104 19.959 13.4672 19.7206 13.0434C19.7025 13.0122 19.6674 12.996 19.6323 13.0014C17.7039 13.3349 15.8585 13.919 14.1366 14.7129C14.1216 14.7193 14.1089 14.7301 14.1004 14.7441C10.6001 19.9946 9.64118 25.1161 10.1116 30.1741C10.1137 30.1988 10.1275 30.2225 10.1467 30.2375C12.4561 31.9403 14.6932 32.9741 16.8887 33.6593C16.9238 33.6701 16.9611 33.6572 16.9834 33.6281C17.5028 32.916 17.9657 32.1652 18.3627 31.3756C18.3861 31.3294 18.3637 31.2745 18.3158 31.2562C17.5815 30.9765 16.8823 30.6355 16.2097 30.2483C16.1565 30.2171 16.1522 30.1407 16.2012 30.1041C16.3427 29.9976 16.4843 29.8868 16.6194 29.7749C16.6439 29.7545 16.678 29.7502 16.7067 29.7631C21.1254 31.7887 25.9092 31.7887 30.2758 29.7631C30.3046 29.7491 30.3386 29.7534 30.3642 29.7739C30.4994 29.8857 30.6409 29.9976 30.7835 30.1041C30.8324 30.1407 30.8292 30.2171 30.776 30.2483C30.1034 30.643 29.4042 30.9765 28.6688 31.2551C28.6209 31.2734 28.5997 31.3294 28.6231 31.3756C29.0285 32.1641 29.4915 32.9149 30.0013 33.6271C30.0226 33.6572 30.0608 33.6701 30.096 33.6593C32.3022 32.9741 34.5392 31.9403 36.8486 30.2375C36.8688 30.2225 36.8816 30.1999 36.8837 30.1751C37.4467 24.3275 35.9408 19.2481 32.8917 14.7451C32.8843 14.7301 32.8715 14.7193 32.8566 14.7129ZM19.0225 27.0943C17.6922 27.0943 16.596 25.868 16.596 24.362C16.596 22.856 17.6709 21.6297 19.0225 21.6297C20.3847 21.6297 21.4703 22.8667 21.449 24.362C21.449 25.868 20.3741 27.0943 19.0225 27.0943ZM27.9941 27.0943C26.6638 27.0943 25.5676 25.868 25.5676 24.362C25.5676 22.856 26.6425 21.6297 27.9941 21.6297C29.3563 21.6297 30.4419 22.8667 30.4206 24.362C30.4206 25.868 29.3563 27.0943 27.9941 27.0943Z" fill="white"/>
</svg>
