<svg width="49" height="48" viewBox="0 0 49 48" fill="none" xmlns="http://www.w3.org/2000/svg">
<circle cx="24.75" cy="24" r="20" fill="#C13584"/>
<path d="M24.75 14.1622C27.9541 14.1622 28.3337 14.1744 29.599 14.2321C30.769 14.2855 31.4044 14.481 31.8273 14.6453C32.3874 14.863 32.7871 15.123 33.207 15.5429C33.627 15.9629 33.887 16.3626 34.1047 16.9227C34.269 17.3456 34.4645 17.981 34.5179 19.151C34.5756 20.4163 34.5878 20.7959 34.5878 23.9999C34.5878 27.2041 34.5756 27.5836 34.5179 28.849C34.4645 30.019 34.269 30.6544 34.1047 31.0772C33.887 31.6373 33.627 32.0371 33.2071 32.457C32.7871 32.8769 32.3874 33.1369 31.8273 33.3546C31.4044 33.519 30.769 33.7145 29.599 33.7678C28.3339 33.8255 27.9544 33.8378 24.75 33.8378C21.5456 33.8378 21.1662 33.8255 19.901 33.7678C18.731 33.7145 18.0956 33.519 17.6727 33.3546C17.1126 33.1369 16.7129 32.8769 16.293 32.457C15.8731 32.0371 15.613 31.6373 15.3953 31.0772C15.231 30.6544 15.0355 30.019 14.9821 28.849C14.9244 27.5836 14.9122 27.2041 14.9122 23.9999C14.9122 20.7959 14.9244 20.4163 14.9821 19.151C15.0355 17.981 15.231 17.3456 15.3953 16.9227C15.613 16.3626 15.873 15.9629 16.293 15.543C16.7129 15.123 17.1126 14.863 17.6727 14.6453C18.0956 14.481 18.731 14.2855 19.901 14.2321C21.1663 14.1744 21.5459 14.1622 24.75 14.1622ZM24.75 12C21.491 12 21.0823 12.0138 19.8024 12.0722C18.5252 12.1305 17.6528 12.3334 16.8895 12.63C16.1004 12.9366 15.4312 13.347 14.7641 14.0141C14.0969 14.6812 13.6866 15.3504 13.38 16.1395C13.0833 16.9028 12.8805 17.7751 12.8222 19.0524C12.7638 20.3323 12.75 20.741 12.75 23.9999C12.75 27.259 12.7638 27.6676 12.8222 28.9475C12.8805 30.2248 13.0833 31.0971 13.38 31.8604C13.6866 32.6495 14.0969 33.3187 14.7641 33.9859C15.4312 34.653 16.1004 35.0633 16.8895 35.3699C17.6528 35.6666 18.5252 35.8695 19.8024 35.9277C21.0823 35.9861 21.491 35.9999 24.75 35.9999C28.009 35.9999 28.4177 35.9861 29.6976 35.9277C30.9748 35.8695 31.8472 35.6666 32.6105 35.3699C33.3996 35.0633 34.0688 34.653 34.7359 33.9859C35.403 33.3187 35.8134 32.6495 36.12 31.8604C36.4167 31.0971 36.6195 30.2248 36.6778 28.9475C36.7362 27.6676 36.75 27.259 36.75 23.9999C36.75 20.741 36.7362 20.3323 36.6778 19.0524C36.6195 17.7751 36.4167 16.9028 36.12 16.1395C35.8134 15.3504 35.403 14.6812 34.7359 14.0141C34.0688 13.347 33.3996 12.9366 32.6105 12.63C31.8472 12.3334 30.9748 12.1305 29.6976 12.0722C28.4177 12.0138 28.009 12 24.75 12Z" fill="white"/>
<path d="M24.7556 17.8434C21.3523 17.8434 18.5934 20.6023 18.5934 24.0055C18.5934 27.4088 21.3523 30.1677 24.7556 30.1677C28.1588 30.1677 30.9177 27.4088 30.9177 24.0055C30.9177 20.6023 28.1588 17.8434 24.7556 17.8434ZM24.7556 28.0055C22.5464 28.0055 20.7555 26.2147 20.7555 24.0055C20.7555 21.7964 22.5464 20.0056 24.7556 20.0056C26.9647 20.0056 28.7555 21.7964 28.7555 24.0055C28.7555 26.2147 26.9647 28.0055 24.7556 28.0055Z" fill="white"/>
<path d="M32.6008 17.5962C32.6008 18.3914 31.9561 19.0361 31.1608 19.0361C30.3656 19.0361 29.7208 18.3914 29.7208 17.5962C29.7208 16.8009 30.3656 16.1561 31.1608 16.1561C31.9561 16.1561 32.6008 16.8009 32.6008 17.5962Z" fill="white"/>
</svg>
