<svg width="40" height="40" viewBox="0 0 40 40" fill="none" xmlns="http://www.w3.org/2000/svg">
<rect width="40" height="40" rx="20" fill="white"/>
<g clip-path="url(#clip0)">
<path d="M23.3922 6.44898C22.4864 6.16327 21.4983 6 20.4897 6C17.5872 6 14.9729 7.30612 13.2231 9.36735L17.7107 13.102L23.3922 6.44898Z" fill="#1A73E8"/>
<path d="M13.2232 9.36735C11.844 11 11 13.1225 11 15.4082C11 17.1837 11.3499 18.6122 11.9469 19.898L17.7107 13.102L13.2232 9.36735Z" fill="#EA4335"/>
<path d="M20.5103 11.8163C22.5276 11.8163 24.1538 13.4286 24.1538 15.4286C24.1538 16.3061 23.8245 17.1224 23.2892 17.7551C23.2892 17.7551 26.1506 14.3673 28.9501 11.0816C27.7974 8.87754 25.8006 7.20407 23.3922 6.44897L17.7107 13.102C18.39 12.3265 19.3781 11.8163 20.5103 11.8163Z" fill="#4285F4"/>
<path d="M20.5103 19.0204C18.4929 19.0204 16.8667 17.4082 16.8667 15.4082C16.8667 14.5306 17.1755 13.7143 17.7107 13.102L11.9469 19.898C12.935 22.0612 14.5818 23.8163 16.2698 26L23.2893 17.7347C22.61 18.5306 21.6219 19.0204 20.5103 19.0204Z" fill="#FBBC04"/>
<path d="M23.1658 28.2857C26.3359 23.3673 30.0206 21.1429 30.0206 15.4286C30.0206 13.8571 29.6295 12.3878 28.9502 11.0816L16.2698 26C16.805 26.6939 17.3608 27.4898 17.896 28.3061C19.831 31.2653 19.2958 33.0204 20.5309 33.0204C21.766 33.0204 21.2308 31.2449 23.1658 28.2857Z" fill="#34A853"/>
</g>
<defs>
<clipPath id="clip0">
<rect width="19" height="27" fill="white" transform="translate(11 6)"/>
</clipPath>
</defs>
</svg>
