<svg width="40" height="40" viewBox="0 0 40 40" fill="none" xmlns="http://www.w3.org/2000/svg">
<circle cx="20" cy="20" r="20" fill="#0077B5"/>
<path fill-rule="evenodd" clip-rule="evenodd" d="M25.3846 29.7776C25.7066 30.0076 26.1206 30.0636 26.4906 29.9236C26.8606 29.7836 27.1346 29.4676 27.2146 29.0836C28.0846 24.9996 30.1926 14.6615 30.9827 10.9475C31.0427 10.6675 30.9447 10.3775 30.7247 10.1895C30.5047 10.0035 30.1986 9.94948 29.9266 10.0495C25.7346 11.6015 12.8205 16.4455 7.54248 18.3995C7.20647 18.5235 6.98847 18.8456 7.00047 19.1996C7.01247 19.5536 7.25047 19.8596 7.59248 19.9616C9.96049 20.6696 13.0685 21.6556 13.0685 21.6556C13.0685 21.6556 14.5185 26.0416 15.2765 28.2716C15.3705 28.5496 15.5905 28.7716 15.8785 28.8456C16.1685 28.9216 16.4745 28.8436 16.6905 28.6396C17.9066 27.4916 19.7866 25.7176 19.7866 25.7176C19.7866 25.7176 23.3586 28.3356 25.3846 29.7776ZM14.3745 21.1016L16.0545 26.6396L16.4265 23.1316C16.4265 23.1316 22.9126 17.2815 26.6106 13.9455C26.7206 13.8495 26.7346 13.6855 26.6446 13.5695C26.5546 13.4555 26.3926 13.4275 26.2686 13.5055C21.9826 16.2415 14.3745 21.1016 14.3745 21.1016Z" fill="white"/>
</svg>
