<svg width="49" height="48" viewBox="0 0 49 48" fill="none" xmlns="http://www.w3.org/2000/svg">
<path d="M24.0517 14.2867C18.75 14.2867 14.44 18.5967 14.4383 23.8967C14.4367 26.06 15.0717 27.68 16.1367 29.375L15.1667 32.9217L18.8033 31.9667C20.4333 32.9333 21.9883 33.5133 24.045 33.515C29.3417 33.515 33.6567 29.2033 33.6583 23.905C33.66 18.5933 29.3667 14.2883 24.0517 14.2867V14.2867ZM29.705 28.0267C29.465 28.7017 28.31 29.3167 27.755 29.4C27.2567 29.475 26.6267 29.505 25.935 29.285C25.515 29.1517 24.9767 28.9733 24.2883 28.6767C21.39 27.425 19.4983 24.5067 19.3533 24.315C19.2083 24.1217 18.1733 22.7483 18.1733 21.3267C18.1733 19.905 18.92 19.205 19.185 18.9167C19.45 18.6283 19.7617 18.555 19.955 18.555L20.5083 18.565C20.685 18.5733 20.9233 18.4983 21.1583 19.0617C21.3983 19.64 21.9767 21.0617 22.0483 21.2067C22.12 21.3517 22.1683 21.52 22.0717 21.7133C21.975 21.9067 21.9267 22.0267 21.7833 22.195L21.35 22.7017C21.205 22.845 21.055 23.0017 21.2233 23.2917C21.3917 23.5817 21.9717 24.5267 22.83 25.2933C23.9333 26.2783 24.865 26.5833 25.1533 26.7267C25.4417 26.87 25.61 26.8467 25.78 26.655C25.9483 26.4617 26.5017 25.8117 26.695 25.5217C26.8883 25.2333 27.08 25.28 27.345 25.3767C27.61 25.4733 29.03 26.1717 29.3183 26.3167C29.6067 26.4617 29.8 26.5333 29.8717 26.6533C29.9467 26.7733 29.9467 27.3517 29.705 28.0267V28.0267ZM24 4C12.955 4 4 12.955 4 24C4 35.045 12.955 44 24 44C35.045 44 44 35.045 44 24C44 12.955 35.045 4 24 4ZM24.0483 35.4667C22.1133 35.4667 20.2067 34.98 18.5183 34.06L12.39 35.6667L14.03 29.675C13.0183 27.9217 12.485 25.9317 12.4867 23.895C12.4883 17.52 17.675 12.3333 24.0483 12.3333C27.1417 12.335 30.045 13.5383 32.2267 15.7233C34.41 17.9083 35.6117 20.8133 35.61 23.9033C35.6083 30.2783 30.4217 35.4667 24.0483 35.4667V35.4667Z" fill="#34A853"/>
</svg>
